<?xml version="1.0" encoding="utf-8"?>
<!-- Generator: Adobe Illustrator 20.0.0, SVG Export Plug-In . SVG Version: 6.00 Build 0)  -->
<svg version="1.1" id="Layer_1" xmlns="http://www.w3.org/2000/svg" xmlns:xlink="http://www.w3.org/1999/xlink" x="0px" y="0px"
	 viewBox="0 0 103.3 86.7" style="enable-background:new 0 0 103.3 86.7;" xml:space="preserve">
<style type="text/css">
	.st0{fill:none;stroke:#FFFFFF;stroke-width:0.5;stroke-miterlimit:10;}
</style>
<g>
	<g>
		<g>
			<g>
				<path class="st0" d="M3.3,4.4c0,0,22.4,52,46.8,79.1C51.3,75.9,63.1,28.1,3.3,4.4z"/>
				<path class="st0" d="M50,83.5c0,0,2.3-26.1-9-45.8C30,18.6,14,8.7,3.7,4.6c-0.1,0-0.2-0.1-0.4-0.1c0,0,19.9,10.3,34.5,35.4
					C52.3,64.6,50,83.5,50,83.5z"/>
				<path class="st0" d="M3.7,4.6c0,0,20.1,34.4,23.8,40.8C31.1,51.8,50,83.5,50,83.5s-2.7-19.8-16.4-43C19.8,17,3.7,4.6,3.7,4.6
					C19,22.1,30.3,42.9,30.3,42.9S45.5,69.7,50,83.5"/>
			</g>
			<g>
				<path class="st0" d="M100.5,2.1c0,0-58.8-5.8-95.9,1.8C10.9,8.6,48.3,40.8,100.5,2.1z"/>
				<path class="st0" d="M4.6,3.9c0,0,22.5,14.2,46.3,14c23-0.2,40.3-8.9,49.3-15.6c0.1-0.1,0.2-0.2,0.3-0.2
					c0,0-19.6,11.7-49.9,12.2C20.6,14.7,4.6,3.9,4.6,3.9z"/>
				<path class="st0" d="M100.2,2.3c0,0-41.6,0.7-49.3,0.7c-7.7,0-46.3,0.9-46.3,0.9s19.4,7,47.6,6.5C80.6,10,100.2,2.3,100.2,2.3
					C76.4,6.9,51.6,6.5,51.6,6.5s-32.1,0.2-47-2.6"/>
			</g>
			<g>
				<path class="st0" d="M101.4,1.9c0,0-25,53.6-50.4,81.6C50.2,75.7,41.4,27.1,101.4,1.9z"/>
				<path class="st0" d="M51,83.5c0,0-0.7-26.6,11.5-47C74.4,16.8,90.7,6.4,101,2c0.1-0.1,0.2-0.1,0.4-0.2c0,0-20.1,10.9-35.9,36.8
					C49.9,64.3,51,83.5,51,83.5z"/>
				<path class="st0" d="M101,2c0,0-21.7,35.5-25.7,42.1C71.4,50.7,51,83.5,51,83.5s3.8-20.3,18.6-44.3C84.5,15,101,2,101,2
					C85,20.2,72.7,41.7,72.7,41.7S56.2,69.3,51,83.5"/>
			</g>
			<polygon class="st0" points="51.2,82.6 50.5,84.7 49.8,83.3 50.5,81.8 			"/>
		</g>
	</g>
	<polygon class="st0" points="2.7,4 6.8,5.8 5.4,4.4 3.3,3.7 	"/>
</g>
</svg>
